<svg width="1440" height="1024" viewBox="0 0 1440 1024" fill="none" xmlns="http://www.w3.org/2000/svg">
<g clip-path="url(#clip0_4_33)">
<path d="M1440 0H0V1024H1440V0Z" fill="#24292E"/>
<path d="M0 721L34.3 713.2C68.7 705.3 137.3 689.7 205.8 693.7C274.3 697.7 342.7 721.3 411.2 734.3C479.7 747.3 548.3 749.7 617 752.5C685.7 755.3 754.3 758.7 823 736C891.7 713.3 960.3 664.7 1028.8 649.5C1097.3 634.3 1165.7 652.7 1234.2 661C1302.7 669.3 1371.3 667.7 1405.7 666.8L1440 666V1025H1405.7C1371.3 1025 1302.7 1025 1234.2 1025C1165.7 1025 1097.3 1025 1028.8 1025C960.3 1025 891.7 1025 823 1025C754.3 1025 685.7 1025 617 1025C548.3 1025 479.7 1025 411.2 1025C342.7 1025 274.3 1025 205.8 1025C137.3 1025 68.7 1025 34.3 1025H0V721Z" fill="#2B3137"/>
<path d="M0 790L34.3 780.8C68.7 771.7 137.3 753.3 205.8 752.8C274.3 752.3 342.7 769.7 411.2 780.5C479.7 791.3 548.3 795.7 617 794.7C685.7 793.7 754.3 787.3 823 771.5C891.7 755.7 960.3 730.3 1028.8 729C1097.3 727.7 1165.7 750.3 1234.2 752.5C1302.7 754.7 1371.3 736.3 1405.7 727.2L1440 718V1025H1405.7C1371.3 1025 1302.7 1025 1234.2 1025C1165.7 1025 1097.3 1025 1028.8 1025C960.3 1025 891.7 1025 823 1025C754.3 1025 685.7 1025 617 1025C548.3 1025 479.7 1025 411.2 1025C342.7 1025 274.3 1025 205.8 1025C137.3 1025 68.7 1025 34.3 1025H0V790Z" fill="#343B42"/>
<path d="M0 806L34.3 810.8C68.7 815.7 137.3 825.3 205.8 836.2C274.3 847 342.7 859 411.2 845C479.7 831 548.3 791 617 786.2C685.7 781.3 754.3 811.7 823 824.7C891.7 837.7 960.3 833.3 1028.8 819.5C1097.3 805.7 1165.7 782.3 1234.2 788.5C1302.7 794.7 1371.3 830.3 1405.7 848.2L1440 866V1025H1405.7C1371.3 1025 1302.7 1025 1234.2 1025C1165.7 1025 1097.3 1025 1028.8 1025C960.3 1025 891.7 1025 823 1025C754.3 1025 685.7 1025 617 1025C548.3 1025 479.7 1025 411.2 1025C342.7 1025 274.3 1025 205.8 1025C137.3 1025 68.7 1025 34.3 1025H0V806Z" fill="#3D454D"/>
<path d="M0 840L34.3 839C68.7 838 137.3 836 205.8 842C274.3 848 342.7 862 411.2 872.8C479.7 883.7 548.3 891.3 617 895.2C685.7 899 754.3 899 823 891.3C891.7 883.7 960.3 868.3 1028.8 865.3C1097.3 862.3 1165.7 871.7 1234.2 878.7C1302.7 885.7 1371.3 890.3 1405.7 892.7L1440 895V1025H1405.7C1371.3 1025 1302.7 1025 1234.2 1025C1165.7 1025 1097.3 1025 1028.8 1025C960.3 1025 891.7 1025 823 1025C754.3 1025 685.7 1025 617 1025C548.3 1025 479.7 1025 411.2 1025C342.7 1025 274.3 1025 205.8 1025C137.3 1025 68.7 1025 34.3 1025H0V840Z" fill="#464F59"/>
<path d="M0 963L34.3 953.8C68.7 944.7 137.3 926.3 205.8 928.2C274.3 930 342.7 952 411.2 951.5C479.7 951 548.3 928 617 916.5C685.7 905 754.3 905 823 910.8C891.7 916.7 960.3 928.3 1028.8 931.7C1097.3 935 1165.7 930 1234.2 932.5C1302.7 935 1371.3 945 1405.7 950L1440 955V1025H1405.7C1371.3 1025 1302.7 1025 1234.2 1025C1165.7 1025 1097.3 1025 1028.8 1025C960.3 1025 891.7 1025 823 1025C754.3 1025 685.7 1025 617 1025C548.3 1025 479.7 1025 411.2 1025C342.7 1025 274.3 1025 205.8 1025C137.3 1025 68.7 1025 34.3 1025H0V963Z" fill="#505A65"/>
</g>
<defs>
<clipPath id="clip0_4_33">
<rect width="1440" height="1024" fill="white"/>
</clipPath>
</defs>
</svg>
